<?xml version="1.0" encoding="UTF-8"?>
<!DOCTYPE svg PUBLIC "-//W3C//DTD SVG 1.1//EN" "http://www.w3.org/Graphics/SVG/1.1/DTD/svg11.dtd">
<svg xmlns="http://www.w3.org/2000/svg" version="1.1" width="800px" height="252px" style="shape-rendering:geometricPrecision; text-rendering:geometricPrecision; image-rendering:optimizeQuality; fill-rule:evenodd; clip-rule:evenodd" xmlns:xlink="http://www.w3.org/1999/xlink">
<g><path style="opacity:1" fill="#fefefe" d="M -0.5,-0.5 C 266.167,-0.5 532.833,-0.5 799.5,-0.5C 799.5,83.5 799.5,167.5 799.5,251.5C 532.833,251.5 266.167,251.5 -0.5,251.5C -0.5,167.5 -0.5,83.5 -0.5,-0.5 Z"/></g>
<g><path style="opacity:1" fill="#fe09fc" d="M 87.5,19.5 C 88.8734,19.3433 90.2068,19.51 91.5,20C 123.125,37.1461 154.459,54.8128 185.5,73C 188.796,74.5107 192.129,75.6774 195.5,76.5C 195.334,68.8261 195.5,61.1594 196,53.5C 200.989,49.1666 206.655,45.8332 213,43.5C 213.772,43.6448 214.439,43.9781 215,44.5C 215.667,64.5 215.667,84.5 215,104.5C 214.275,105.059 213.442,105.392 212.5,105.5C 187.142,92.3069 162.142,78.4736 137.5,64C 133.781,61.6361 129.781,60.1361 125.5,59.5C 125.667,85.8354 125.5,112.169 125,138.5C 123.5,140 122,141.5 120.5,143C 110.88,147.476 101.547,152.476 92.5,158C 90.8659,158.494 89.1992,158.66 87.5,158.5C 87.5,112.167 87.5,65.8333 87.5,19.5 Z"/></g>
<g><path style="opacity:1" fill="#efd029" d="M 256.5,19.5 C 257.5,19.5 258.5,19.5 259.5,19.5C 259.5,65.8333 259.5,112.167 259.5,158.5C 225.685,140.762 192.352,122.262 159.5,103C 157.35,101.589 155.016,100.755 152.5,100.5C 152.938,108.943 152.438,117.277 151,125.5C 146.609,128.187 142.109,130.687 137.5,133C 136.207,133.49 134.873,133.657 133.5,133.5C 133.5,112.833 133.5,92.1667 133.5,71.5C 163.088,86.9621 192.421,102.962 221.5,119.5C 223.037,92.5138 223.871,65.5138 224,38.5C 234.978,32.2663 245.812,25.9329 256.5,19.5 Z"/></g>
<g><path style="opacity:1" fill="#313131" d="M 447.5,26.5 C 453.833,26.5 460.167,26.5 466.5,26.5C 466.5,67.1667 466.5,107.833 466.5,148.5C 460.167,148.5 453.833,148.5 447.5,148.5C 447.5,107.833 447.5,67.1667 447.5,26.5 Z"/></g>
<g><path style="opacity:1" fill="#333333" d="M 634.5,148.5 C 628.5,148.5 622.5,148.5 616.5,148.5C 616.83,128.993 616.497,109.659 615.5,90.5C 615.361,83.8537 612.028,79.687 605.5,78C 596.36,75.6565 589.027,78.1565 583.5,85.5C 582.503,106.327 582.169,127.327 582.5,148.5C 576.5,148.5 570.5,148.5 564.5,148.5C 564.5,120.167 564.5,91.8333 564.5,63.5C 570.5,63.5 576.5,63.5 582.5,63.5C 582.187,66.2469 582.52,68.9135 583.5,71.5C 592.869,62.8863 603.869,60.0529 616.5,63C 622.783,65.1116 627.783,68.9449 631.5,74.5C 641.067,63.3676 653.067,59.5343 667.5,63C 679.85,67.373 686.016,76.2063 686,89.5C 686.667,109.167 686.667,128.833 686,148.5C 679.924,149.476 673.758,149.81 667.5,149.5C 667.667,128.831 667.5,108.164 667,87.5C 664.81,79.4185 659.477,76.0852 651,77.5C 643.285,77.5269 637.952,81.1935 635,88.5C 634.5,108.497 634.333,128.497 634.5,148.5 Z"/></g>
<g><path style="opacity:1" fill="#353535" d="M 346.5,91.5 C 347.331,98.1311 347.664,104.798 347.5,111.5C 329.007,112.497 310.341,112.83 291.5,112.5C 296.116,134.225 308.782,140.725 329.5,132C 332.313,129.807 334.98,127.807 337.5,126C 340.349,129.016 343.349,131.85 346.5,134.5C 332.336,151.069 315.003,155.235 294.5,147C 282.308,140.46 275.141,130.293 273,116.5C 270.018,98.4528 274.851,82.9528 287.5,70C 299.14,62.3713 311.807,60.3713 325.5,64C 337.941,69.0638 344.941,78.2305 346.5,91.5 Z"/></g>
<g><path style="opacity:1" fill="#343434" d="M 389.5,62.5 C 404.167,59.4228 416.667,63.0895 427,73.5C 434.925,84.8526 437.758,97.5193 435.5,111.5C 416.833,111.5 398.167,111.5 379.5,111.5C 381.607,130.101 391.941,137.934 410.5,135C 416.103,133.233 420.77,130.066 424.5,125.5C 428.033,128.199 431.033,131.366 433.5,135C 426.074,145.943 415.741,151.11 402.5,150.5C 387.501,151.417 375.668,145.75 367,133.5C 357.517,113.538 358.517,94.2043 370,75.5C 375.36,69.2807 381.86,64.9474 389.5,62.5 Z"/></g>
<g><path style="opacity:1" fill="#353535" d="M 504.5,62.5 C 512.507,62.3336 520.507,62.5003 528.5,63C 538.503,65.6699 545.336,71.8366 549,81.5C 550.243,101.134 550.91,120.8 551,140.5C 551.269,143.352 552.103,146.018 553.5,148.5C 547.193,149.664 540.859,149.831 534.5,149C 532.887,146.772 532.22,144.272 532.5,141.5C 527.196,144.949 521.529,147.783 515.5,150C 502.803,152.709 492.303,149.209 484,139.5C 474.919,119.499 480.753,105.999 501.5,99C 511.362,97.9591 521.195,97.1258 531,96.5C 532.213,79.3363 524.379,72.8363 507.5,77C 503.276,79.2919 500.943,82.7919 500.5,87.5C 494.167,87.5 487.833,87.5 481.5,87.5C 482.663,78.8024 486.996,71.9691 494.5,67C 497.815,65.1702 501.149,63.6702 504.5,62.5 Z"/></g>
<g><path style="opacity:1" fill="#f9f9f9" d="M 305.5,76.5 C 321.466,75.1319 329.466,82.4653 329.5,98.5C 317.167,98.5 304.833,98.5 292.5,98.5C 292.748,88.6608 297.081,81.3275 305.5,76.5 Z"/></g>
<g><path style="opacity:1" fill="#f8f8f8" d="M 393.5,76.5 C 409.465,75.1312 417.465,82.4646 417.5,98.5C 404.833,98.5 392.167,98.5 379.5,98.5C 380.14,88.5437 384.806,81.2104 393.5,76.5 Z"/></g>
<g><path style="opacity:1" fill="#6a6a6a" d="M 583.5,85.5 C 583.5,106.833 583.5,128.167 583.5,149.5C 576.978,149.823 570.645,149.49 564.5,148.5C 570.5,148.5 576.5,148.5 582.5,148.5C 582.169,127.327 582.503,106.327 583.5,85.5 Z"/></g>
<g><path style="opacity:1" fill="#707171" d="M 615.5,90.5 C 616.497,109.659 616.83,128.993 616.5,148.5C 622.5,148.5 628.5,148.5 634.5,148.5C 628.355,149.49 622.022,149.823 615.5,149.5C 615.5,129.833 615.5,110.167 615.5,90.5 Z"/></g>
<g><path style="opacity:1" fill="#8f8f8f" d="M 346.5,91.5 C 348.048,95.034 348.714,98.8673 348.5,103C 348.498,106.021 348.164,108.854 347.5,111.5C 347.664,104.798 347.331,98.1311 346.5,91.5 Z"/></g>
<g><path style="opacity:1" fill="#fafafa" d="M 510.5,108.5 C 517.5,108.5 524.5,108.5 531.5,108.5C 535.477,125.329 528.977,134.329 512,135.5C 503.363,135.865 498.863,131.698 498.5,123C 499.761,115.905 503.761,111.072 510.5,108.5 Z"/></g>
<g><path style="opacity:1" fill="#6d6d6d" d="M 340.5,204.5 C 340.5,204.167 340.5,203.833 340.5,203.5C 341.822,200.232 342.489,196.565 342.5,192.5C 342.167,188.833 341.833,185.167 341.5,181.5C 340.893,181.624 340.56,181.957 340.5,182.5C 337.833,182.5 335.167,182.5 332.5,182.5C 332.33,181.178 332.663,180.011 333.5,179C 339.491,178.501 345.491,178.334 351.5,178.5C 351.5,179.833 351.5,181.167 351.5,182.5C 348.833,182.5 346.167,182.5 343.5,182.5C 343.5,189.833 343.5,197.167 343.5,204.5C 342.5,204.5 341.5,204.5 340.5,204.5 Z"/></g>
<g><path style="opacity:1" fill="#494949" d="M 384.5,196.5 C 383.01,194.72 381.01,194.054 378.5,194.5C 378.5,197.833 378.5,201.167 378.5,204.5C 377.5,204.5 376.5,204.5 375.5,204.5C 375.5,196.5 375.5,188.5 375.5,180.5C 375.611,179.883 375.944,179.383 376.5,179C 386.32,176.191 391.154,179.691 391,189.5C 389.702,191.265 388.536,193.099 387.5,195C 388.833,197.667 390.167,200.333 391.5,203C 391.15,204.257 390.483,204.591 389.5,204C 388.182,201.176 386.515,198.676 384.5,196.5 Z"/></g>
<g><path style="opacity:1" fill="#6b6b6b" d="M 411.5,181.5 C 410.167,181.5 409.5,182.167 409.5,183.5C 406.833,183.5 404.167,183.5 401.5,183.5C 401.5,186.167 401.5,188.833 401.5,191.5C 400.212,188.3 400.212,184.967 401.5,181.5C 400.675,180.614 399.675,180.281 398.5,180.5C 400.048,179.206 402.048,178.539 404.5,178.5C 406.5,178.667 408.5,178.833 410.5,179C 411.252,179.671 411.586,180.504 411.5,181.5 Z"/></g>
<g><path style="opacity:1" fill="#d4d5d5" d="M 441.5,177.5 C 443.144,177.286 444.644,177.62 446,178.5C 446.5,187.494 446.666,196.494 446.5,205.5C 444.533,205.739 442.699,205.406 441,204.5C 440.196,195.422 440.363,186.422 441.5,177.5 Z"/></g>
<g><path style="opacity:1" fill="#838383" d="M 327.5,180.5 C 328.493,188.65 328.826,196.983 328.5,205.5C 326.517,205.843 325.183,205.176 324.5,203.5C 325.5,203.5 326.5,203.5 327.5,203.5C 327.5,195.833 327.5,188.167 327.5,180.5 Z"/></g>
<g><path style="opacity:1" fill="#e2e2e2" d="M 378.5,182.5 C 381.187,182.336 383.854,182.503 386.5,183C 389.001,185.399 389.001,187.899 386.5,190.5C 383.914,191.48 381.247,191.813 378.5,191.5C 378.5,188.5 378.5,185.5 378.5,182.5 Z"/></g>
<g><path style="opacity:1" fill="#2f2f2f" d="M 398.5,180.5 C 399.675,180.281 400.675,180.614 401.5,181.5C 400.212,184.967 400.212,188.3 401.5,191.5C 401.052,195.524 400.386,199.524 399.5,203.5C 398.503,195.862 398.169,188.196 398.5,180.5 Z"/></g>
<g><path style="opacity:1" fill="#ececec" d="M 409.5,183.5 C 411.616,185.088 411.949,187.088 410.5,189.5C 409.15,190.95 407.484,191.617 405.5,191.5C 404.167,191.5 402.833,191.5 401.5,191.5C 401.5,188.833 401.5,186.167 401.5,183.5C 404.167,183.5 406.833,183.5 409.5,183.5 Z"/></g>
<g><path style="opacity:1" fill="#787878" d="M 442.5,203.5 C 441.508,195.684 441.174,187.684 441.5,179.5C 442.833,179.5 444.167,179.5 445.5,179.5C 445.5,187.833 445.5,196.167 445.5,204.5C 444.209,204.737 443.209,204.404 442.5,203.5 Z"/></g>
<g><path style="opacity:1" fill="#404040" d="M 485.5,179.5 C 486.404,180.209 486.737,181.209 486.5,182.5C 482.833,182.5 479.167,182.5 475.5,182.5C 475.5,185.167 475.5,187.833 475.5,190.5C 478.247,190.187 480.914,190.52 483.5,191.5C 480.572,192.484 477.572,192.817 474.5,192.5C 474.335,195.518 474.502,198.518 475,201.5C 478.459,202.133 481.959,202.8 485.5,203.5C 481.217,204.492 476.884,204.826 472.5,204.5C 472.334,196.493 472.5,188.493 473,180.5C 477.066,179.536 481.233,179.203 485.5,179.5 Z"/></g>
<g><path style="opacity:1" fill="#424242" d="M 303.5,179.5 C 304.833,180.5 304.833,181.5 303.5,182.5C 300.167,182.5 296.833,182.5 293.5,182.5C 293.5,185.167 293.5,187.833 293.5,190.5C 296.247,190.187 298.914,190.52 301.5,191.5C 298.634,192.208 295.8,192.875 293,193.5C 292.333,196.167 292.333,198.833 293,201.5C 296.459,202.133 299.959,202.8 303.5,203.5C 299.217,204.492 294.884,204.826 290.5,204.5C 290.334,196.493 290.5,188.493 291,180.5C 295.066,179.536 299.233,179.203 303.5,179.5 Z"/></g>
<g><path style="opacity:1" fill="#a4a5a5" d="M 332.5,182.5 C 335.167,182.5 337.833,182.5 340.5,182.5C 340.5,189.5 340.5,196.5 340.5,203.5C 340.5,203.833 340.5,204.167 340.5,204.5C 339.509,197.687 339.175,190.687 339.5,183.5C 336.941,183.802 334.607,183.468 332.5,182.5 Z"/></g>
<g><path style="opacity:1" fill="#b4b5b5" d="M 430.5,179.5 C 427.482,179.335 424.482,179.502 421.5,180C 421,180.5 420.5,181 420,181.5C 419.5,189.159 419.334,196.826 419.5,204.5C 418.344,196.677 418.177,188.677 419,180.5C 420.822,178.955 422.989,178.288 425.5,178.5C 427.369,178.507 429.036,178.84 430.5,179.5 Z"/></g>
<g><path style="opacity:1" fill="#2e2e2e" d="M 442.5,203.5 C 442.169,195.804 442.503,188.138 443.5,180.5C 443.833,184.333 444.167,188.167 444.5,192C 444.49,196.229 443.823,200.062 442.5,203.5 Z"/></g>
<g><path style="opacity:1" fill="#7b7b7b" d="M 495.5,183.5 C 496.483,182.15 497.816,181.15 499.5,180.5C 498.635,179.417 497.635,179.251 496.5,180C 491.624,183.521 491.29,187.354 495.5,191.5C 492.475,190.967 491.142,189.133 491.5,186C 493.097,178.538 497.43,176.538 504.5,180C 505.337,181.011 505.67,182.178 505.5,183.5C 502.148,182.293 498.814,182.293 495.5,183.5 Z"/></g>
<g><path style="opacity:1" fill="#1f1f1f" d="M 340.5,203.5 C 340.5,196.5 340.5,189.5 340.5,182.5C 340.56,181.957 340.893,181.624 341.5,181.5C 341.833,185.167 342.167,188.833 342.5,192.5C 342.489,196.565 341.822,200.232 340.5,203.5 Z"/></g>
<g><path style="opacity:1" fill="#6b6b6b" d="M 358.5,183.5 C 358.414,182.504 358.748,181.671 359.5,181C 358.552,180.517 357.552,180.351 356.5,180.5C 355.93,188.154 355.596,195.821 355.5,203.5C 354.344,196.011 354.178,188.345 355,180.5C 355.5,180 356,179.5 356.5,179C 360.821,178.501 365.154,178.334 369.5,178.5C 369.5,179.833 369.5,181.167 369.5,182.5C 365.731,182.244 362.064,182.577 358.5,183.5 Z"/></g>
<g><path style="opacity:1" fill="#3c3c3c" d="M 358.5,183.5 C 358.5,185.5 358.5,187.5 358.5,189.5C 361.028,190.166 363.694,190.832 366.5,191.5C 363.914,192.48 361.247,192.813 358.5,192.5C 358.5,195.833 358.5,199.167 358.5,202.5C 362.226,202.177 365.893,202.511 369.5,203.5C 365.217,204.492 360.884,204.826 356.5,204.5C 355.833,204.5 355.5,204.167 355.5,203.5C 355.596,195.821 355.93,188.154 356.5,180.5C 357.552,180.351 358.552,180.517 359.5,181C 358.748,181.671 358.414,182.504 358.5,183.5 Z"/></g>
<g><path style="opacity:1" fill="#383838" d="M 411.5,181.5 C 415.893,186.215 415.226,190.215 409.5,193.5C 407.801,193.66 406.134,193.494 404.5,193C 405.056,192.617 405.389,192.117 405.5,191.5C 407.484,191.617 409.15,190.95 410.5,189.5C 411.949,187.088 411.616,185.088 409.5,183.5C 409.5,182.167 410.167,181.5 411.5,181.5 Z"/></g>
<g><path style="opacity:1" fill="#4c4c4c" d="M 430.5,179.5 C 435.183,181.21 436.683,184.543 435,189.5C 433.936,191.269 432.769,192.936 431.5,194.5C 433.483,196.996 434.817,199.83 435.5,203C 434.004,203.507 432.837,203.007 432,201.5C 430.961,199.254 429.794,197.087 428.5,195C 426.527,194.505 424.527,194.338 422.5,194.5C 422.5,197.833 422.5,201.167 422.5,204.5C 421.5,204.5 420.5,204.5 419.5,204.5C 419.334,196.826 419.5,189.159 420,181.5C 420.5,181 421,180.5 421.5,180C 424.482,179.502 427.482,179.335 430.5,179.5 Z"/></g>
<g><path style="opacity:1" fill="#ebebeb" d="M 423.5,183.5 C 426.518,183.335 429.518,183.502 432.5,184C 433.935,186.267 433.602,188.267 431.5,190C 428.854,190.497 426.187,190.664 423.5,190.5C 423.5,188.167 423.5,185.833 423.5,183.5 Z"/></g>
<g><path style="opacity:1" fill="#9e9e9e" d="M 303.5,179.5 C 299.233,179.203 295.066,179.536 291,180.5C 290.5,188.493 290.334,196.493 290.5,204.5C 294.884,204.826 299.217,204.492 303.5,203.5C 299.959,202.8 296.459,202.133 293,201.5C 292.333,198.833 292.333,196.167 293,193.5C 295.8,192.875 298.634,192.208 301.5,191.5C 298.914,190.52 296.247,190.187 293.5,190.5C 293.5,187.833 293.5,185.167 293.5,182.5C 296.833,182.5 300.167,182.5 303.5,182.5C 300.713,183.477 297.713,183.81 294.5,183.5C 294.5,185.5 294.5,187.5 294.5,189.5C 297.187,189.336 299.854,189.503 302.5,190C 303.833,191 303.833,192 302.5,193C 299.854,193.497 297.187,193.664 294.5,193.5C 294.5,195.833 294.5,198.167 294.5,200.5C 297.85,200.335 301.183,200.502 304.5,201C 305.517,202.049 305.684,203.216 305,204.5C 299.928,205.471 294.762,205.805 289.5,205.5C 289.334,196.827 289.5,188.16 290,179.5C 294.6,178.177 299.1,178.177 303.5,179.5 Z"/></g>
<g><path style="opacity:1" fill="#9a9b9b" d="M 310.5,179.5 C 310.169,187.528 310.502,195.528 311.5,203.5C 312.33,197.528 312.83,191.528 313,185.5C 314.045,186.373 314.878,187.373 315.5,188.5C 313.55,193.735 312.883,199.402 313.5,205.5C 312.167,205.5 310.833,205.5 309.5,205.5C 309.174,196.651 309.507,187.984 310.5,179.5 Z"/></g>
<g><path style="opacity:1" fill="#494949" d="M 466.5,194.5 C 467.172,197.908 466.172,200.575 463.5,202.5C 462.537,202.03 462.537,201.363 463.5,200.5C 463.785,198.712 463.452,197.045 462.5,195.5C 456.694,193.85 452.694,190.35 450.5,185C 454,178.101 458.833,176.935 465,181.5C 465.432,182.6 464.932,183.267 463.5,183.5C 460.504,182.332 457.504,182.332 454.5,183.5C 454.081,186.325 455.081,188.491 457.5,190C 461.075,190.454 464.075,191.954 466.5,194.5 Z"/></g>
<g><path style="opacity:1" fill="#b3b3b3" d="M 485.5,179.5 C 481.233,179.203 477.066,179.536 473,180.5C 472.5,188.493 472.334,196.493 472.5,204.5C 476.884,204.826 481.217,204.492 485.5,203.5C 481.959,202.8 478.459,202.133 475,201.5C 474.502,198.518 474.335,195.518 474.5,192.5C 477.572,192.817 480.572,192.484 483.5,191.5C 480.914,190.52 478.247,190.187 475.5,190.5C 475.5,187.833 475.5,185.167 475.5,182.5C 479.167,182.5 482.833,182.5 486.5,182.5C 483.375,183.479 480.042,183.813 476.5,183.5C 476.5,185.5 476.5,187.5 476.5,189.5C 479.833,189.5 483.167,189.5 486.5,189.5C 486.714,191.144 486.38,192.644 485.5,194C 482.518,194.498 479.518,194.665 476.5,194.5C 476.5,196.5 476.5,198.5 476.5,200.5C 479.833,200.5 483.167,200.5 486.5,200.5C 486.5,202.167 486.5,203.833 486.5,205.5C 481.238,205.805 476.072,205.471 471,204.5C 470.5,195.84 470.334,187.173 470.5,178.5C 475.695,178.179 480.695,178.513 485.5,179.5 Z"/></g>
<g><path style="opacity:1" fill="#3d3d3d" d="M 495.5,183.5 C 494.113,185.489 494.447,187.322 496.5,189C 499.715,190.774 503.048,192.274 506.5,193.5C 508.644,198.377 507.311,201.877 502.5,204C 498.812,204.45 495.146,204.283 491.5,203.5C 491.5,202.167 491.5,200.833 491.5,199.5C 493.878,200.688 496.378,201.688 499,202.5C 502.815,202.129 504.481,200.129 504,196.5C 501.469,194.097 498.636,192.43 495.5,191.5C 491.29,187.354 491.624,183.521 496.5,180C 497.635,179.251 498.635,179.417 499.5,180.5C 497.816,181.15 496.483,182.15 495.5,183.5 Z"/></g>
<g><path style="opacity:1" fill="#4f4f4f" d="M 310.5,179.5 C 311.822,179.33 312.989,179.663 314,180.5C 317.847,185.53 321.18,190.863 324,196.5C 324.499,190.843 324.666,185.176 324.5,179.5C 325.791,179.263 326.791,179.596 327.5,180.5C 327.5,188.167 327.5,195.833 327.5,203.5C 326.5,203.5 325.5,203.5 324.5,203.5C 321.797,198.446 318.797,193.446 315.5,188.5C 314.878,187.373 314.045,186.373 313,185.5C 312.83,191.528 312.33,197.528 311.5,203.5C 310.502,195.528 310.169,187.528 310.5,179.5 Z"/></g>
<g><path style="opacity:1" fill="#7b7b7b" d="M 398.5,180.5 C 398.169,188.196 398.503,195.862 399.5,203.5C 400.386,199.524 401.052,195.524 401.5,191.5C 402.833,191.5 404.167,191.5 405.5,191.5C 405.389,192.117 405.056,192.617 404.5,193C 406.134,193.494 407.801,193.66 409.5,193.5C 409.389,194.117 409.056,194.617 408.5,195C 406.19,195.497 403.857,195.663 401.5,195.5C 401.5,198.5 401.5,201.5 401.5,204.5C 400.167,204.5 398.833,204.5 397.5,204.5C 397.174,196.316 397.508,188.316 398.5,180.5 Z"/></g>
<g><path style="opacity:1" fill="#c3c3c3" d="M 375.5,180.5 C 375.5,188.5 375.5,196.5 375.5,204.5C 376.5,204.5 377.5,204.5 378.5,204.5C 378.5,201.167 378.5,197.833 378.5,194.5C 381.01,194.054 383.01,194.72 384.5,196.5C 383.417,196.461 382.417,196.127 381.5,195.5C 380.513,198.768 380.18,202.102 380.5,205.5C 378.5,205.5 376.5,205.5 374.5,205.5C 374.174,196.983 374.507,188.65 375.5,180.5 Z"/></g>
<g><path style="opacity:1" fill="#acacac" d="M 358.5,189.5 C 361.518,189.335 364.518,189.502 367.5,190C 368.833,191 368.833,192 367.5,193C 364.854,193.497 362.187,193.664 359.5,193.5C 359.5,195.833 359.5,198.167 359.5,200.5C 363.5,200.5 367.5,200.5 371.5,200.5C 371.5,202.167 371.5,203.833 371.5,205.5C 366.305,205.821 361.305,205.487 356.5,204.5C 360.884,204.826 365.217,204.492 369.5,203.5C 365.893,202.511 362.226,202.177 358.5,202.5C 358.5,199.167 358.5,195.833 358.5,192.5C 361.247,192.813 363.914,192.48 366.5,191.5C 363.694,190.832 361.028,190.166 358.5,189.5 Z"/></g>
<g><path style="opacity:1" fill="#727272" d="M 466.5,194.5 C 468.377,195.659 468.877,197.326 468,199.5C 464.591,204.96 459.758,206.627 453.5,204.5C 451.244,203.579 450.244,201.912 450.5,199.5C 453.344,200.058 456.178,200.725 459,201.5C 460.533,201.227 462.033,200.894 463.5,200.5C 462.537,201.363 462.537,202.03 463.5,202.5C 466.172,200.575 467.172,197.908 466.5,194.5 Z"/></g>
</svg>
